<svg width="159" height="48" viewBox="0 0 159 48" fill="none" xmlns="http://www.w3.org/2000/svg">
<path d="M27.9388 40.5107H19.1848V31.4065C12.1816 30.8462 9.96386 37.2425 9.73042 40.5107H0.626203C-0.214186 27.0645 11.0143 22.3023 16.7337 21.602H27.9388V40.5107Z" fill="#BCF035"/>
<rect x="1.28186" y="11.7971" width="18.9088" height="9.80454" fill="#BCF035"/>
<path d="M44.3941 18.3065C51.3584 18.3065 54.5624 20.532 54.5624 24.9831V39.3339H49.2288L48.6725 37.2043L49.3823 35.7653C48.5765 37.1275 47.3487 38.1444 45.7179 38.8542C44.0871 39.5833 42.3412 39.9286 40.4994 39.9286C35.9524 39.9286 33.3048 37.7031 33.3048 33.4055C33.3048 29.2806 35.9141 27.2278 41.1325 27.2278H48.2504V25.6546C48.2504 23.7168 47.0417 23.0261 44.1255 23.0261C41.4203 23.0261 40.25 23.6017 40.0006 25.2325H34.3792C34.2833 22.7192 35.0891 20.9349 36.8158 19.8797C38.5425 18.8245 41.075 18.3065 44.3941 18.3065ZM42.7825 35.1706H43.0511C45.1423 35.1706 46.8882 34.6142 48.2504 33.4823V31.0841H42.1494C40.557 31.0841 39.7512 31.7556 39.7512 33.0794C39.7512 34.4799 40.768 35.1706 42.7825 35.1706ZM69.297 39.9286C65.7284 39.9286 62.9465 38.9118 60.9704 36.8781C58.9751 34.8444 57.9775 32.2544 57.9775 29.108C57.9775 25.9807 58.9751 23.3907 60.9704 21.357C62.9657 19.3233 65.7476 18.3065 69.297 18.3065C72.4242 18.3065 74.9183 19.1123 76.7985 20.7047C78.6595 22.2971 79.7531 24.4267 80.0601 27.0743H73.8631C73.3451 25.0214 71.6568 23.9278 69.297 23.9278C67.7237 23.9278 66.4959 24.4075 65.5941 25.3668C64.6924 26.326 64.232 27.5731 64.232 29.108C64.232 30.662 64.6924 31.909 65.5941 32.8683C66.4959 33.8276 67.7237 34.3072 69.297 34.3072C71.6568 34.3072 73.3259 33.2137 73.8631 31.1608H80.0601C79.7723 33.8084 78.6787 35.938 76.7985 37.5304C74.9183 39.1228 72.4242 39.9286 69.297 39.9286ZM93.5859 18.3065C100.55 18.3065 103.754 20.532 103.754 24.9831V39.3339H98.4206L97.8643 37.2043L98.5741 35.7653C97.7683 37.1275 96.5405 38.1444 94.9097 38.8542C93.2789 39.5833 91.533 39.9286 89.6912 39.9286C85.1442 39.9286 82.4966 37.7031 82.4966 33.4055C82.4966 29.2806 85.1059 27.2278 90.3243 27.2278H97.4422V25.6546C97.4422 23.7168 96.2335 23.0261 93.3173 23.0261C90.6121 23.0261 89.4418 23.6017 89.1924 25.2325H83.571C83.4751 22.7192 84.2809 20.9349 86.0076 19.8797C87.7343 18.8245 90.2668 18.3065 93.5859 18.3065ZM91.9743 35.1706H92.2429C94.3341 35.1706 96.08 34.6142 97.4422 33.4823V31.0841H91.3412C89.7488 31.0841 88.943 31.7556 88.943 33.0794C88.943 34.4799 89.9598 35.1706 91.9743 35.1706ZM123.918 21.0308V11.438H130.288V39.3339H124.033L123.957 36.7822C122.403 38.8734 120.158 39.9286 117.203 39.9286C114.191 39.9286 111.755 38.8926 109.932 36.8206C108.09 34.7485 107.169 32.1776 107.169 29.108C107.169 26.0574 108.09 23.4866 109.951 21.4337C111.793 19.3809 114.21 18.3448 117.203 18.3448C120.561 18.3448 123.189 19.9564 125.089 23.1796L123.918 21.0308ZM114.863 32.9067C115.822 33.8852 117.107 34.384 118.7 34.384C120.292 34.384 121.558 33.8852 122.537 32.9067C123.515 31.9282 123.995 30.662 123.995 29.108C123.995 27.5731 123.515 26.3069 122.537 25.3284C121.558 24.3499 120.292 23.8511 118.7 23.8511C117.107 23.8511 115.822 24.3499 114.863 25.3284C113.903 26.3069 113.424 27.5731 113.424 29.108C113.424 30.662 113.903 31.9282 114.863 32.9067ZM145.003 39.9286C141.531 39.9286 138.768 38.9118 136.715 36.8589C134.662 34.8061 133.645 32.2352 133.645 29.108C133.645 25.9999 134.662 23.429 136.715 21.3762C138.768 19.3233 141.531 18.3065 145.003 18.3065C148.514 18.3065 151.277 19.3233 153.33 21.3762C155.383 23.429 156.399 25.9999 156.399 29.108C156.399 32.2352 155.383 34.8061 153.33 36.8589C151.277 38.9118 148.514 39.9286 145.003 39.9286ZM141.243 32.8491C142.145 33.8276 143.411 34.3072 145.003 34.3072C146.596 34.3072 147.862 33.8276 148.783 32.8491C149.704 31.8707 150.164 30.6236 150.164 29.108C150.164 27.5923 149.704 26.3644 148.783 25.386C147.862 24.4075 146.596 23.9278 145.003 23.9278C143.411 23.9278 142.145 24.4075 141.243 25.386C140.322 26.3644 139.861 27.5923 139.861 29.108C139.861 30.6236 140.322 31.8707 141.243 32.8491Z" fill="#BCF035"/>
</svg>
