<svg xmlns="http://www.w3.org/2000/svg"  viewBox="0 0 48 48" width="48px" height="48px"><path fill="#373837" d="M41.7,13.1c-0.1-1.4-0.2-2.9-0.3-4.3c0-0.8-0.1-1.5-0.4-2.1c-0.5-0.9-1.5-1.5-2.5-1.7 s-2.1-0.2-3.1-0.1c-6.9,0.4-13.9,0.5-20.8,0.3C12.8,5.1,10.9,5,9.2,5.7S6,7.9,6.1,9.7c0,0,0.4,13.9,0.2,21.3c-0.1,2.5-0.2,5,0,7.5 c0.1,0.8,0.2,1.5,0.6,2.2c0.8,1.4,2.7,1.6,4.3,1.7c8.2,0.4,16.4-0.6,24.6-0.3c1.8,0.1,4,0,5-1.5c0.3-0.5,0.4-1,0.5-1.6 C43,30.5,42.4,21.7,41.7,13.1z"/><path fill="#38b47b" d="M34,18.2c0-0.2,0-0.4-0.1-0.6c-0.2-0.3-0.7-0.4-1.1-0.4c-2.2-0.2-4.4-0.1-6.5,0.1 c-0.3,0-0.6,0.2-0.6,0.4c0,0,0,7,0,10.6c0,0.5,0,1.1,0.4,1.5C26.5,30,27,30,27.5,30c1.9-0.1,3.8-0.1,5.7-0.2c0.2,0,0.5,0,0.7-0.2 c0.4-0.2,0.4-0.7,0.4-1.2C34.2,25.1,34.1,21.6,34,18.2z"/><path fill="#d6e5e5" d="M23.4,27.2c0-0.6,0-1.1,0.1-1.7c0.2-2.5,0.1-5.1-0.2-7.6c0-0.2-0.1-0.3-0.1-0.5 C22.9,17,22.3,17,21.8,17c-0.3,0-0.7,0-0.9,0.3c-0.2,0.2-0.2,0.6-0.2,0.9c0,1.3-0.1,2.6-0.1,3.9c0,0.2,0,0.4-0.2,0.5 c-0.1,0-0.2,0.1-0.3,0.1c-0.4,0-0.7,0-1.1-0.1s-0.9-0.2-1.1-0.6c0-0.2,0-0.3,0-0.5c0.1-1.1,0.2-2.2,0.1-3.2c0-0.1,0-0.3-0.1-0.4 s-0.3-0.2-0.5-0.2c-0.6-0.1-1.3-0.2-1.9-0.1c-0.4,0-1,0.2-1,0.6v0.2c0,3.7,0,7.3,0,11c0,0.3,0,0.6,0.3,0.8c0.1,0.1,0.3,0.1,0.5,0.1 c0.6,0,1.3,0,1.9,0c0.2,0,0.3,0,0.4-0.1c0.2-0.1,0.2-0.4,0.2-0.6c0-1.2,0-2.4-0.1-3.6c0-0.1,0-0.2,0-0.3c0.1-0.1,0.2-0.2,0.4-0.2 c0.5-0.1,1.1-0.1,1.7-0.1c0.1,0,0.3,0,0.4,0.1c0.4,0.2,0.5,0.7,0.5,1.1c0,1.2,0.1,2.4,0.1,3.6c0,0.1,0,0.2,0.1,0.3 c0.1,0.1,0.2,0.1,0.4,0.1c0.6,0.1,1.2,0,1.7-0.1c0.1,0,0.3-0.1,0.4-0.2c0.2-0.2,0.3-0.4,0.3-0.7C23.7,28.6,23.5,27.9,23.4,27.2z"/><path fill="#010101" d="M42.5,17.1c-0.1-1.4-0.2-2.7-0.3-4.1s-0.2-2.8-0.3-4.2c-0.1-1.1-0.2-2.3-1-3.1 c-1.7-1.9-4.5-1.4-6.8-1.3C28.4,4.7,22.7,4.8,17,4.7c-2.6-0.1-5.4-0.5-7.9,0.4C7.4,5.8,5.7,7.4,5.6,9.5c0,1.9,0.1,3.8,0.1,5.7 c0.1,3.7,0.1,7.5,0.1,11.2c0,1.8,0,3.6-0.1,5.5c0,1.4-0.1,2.8-0.1,4.2c0,1.2,0,2.6,0.3,3.8c0.5,2.1,2.6,2.8,4.5,3 c2.7,0.2,5.5,0.2,8.2,0.1c5.7-0.1,11.3-0.5,17-0.4c1.8,0.1,4,0.1,5.2-1.5c0.8-0.9,0.9-2.3,1.1-3.5c0.2-1.3,0.4-2.6,0.5-3.9 C43.1,28.2,42.9,22.7,42.5,17.1z M41.9,28.6c-0.1,2.6-0.3,5.2-0.7,7.7c-0.2,1.2-0.3,2.5-0.8,3.6c-0.4,0.9-1.3,1.3-2.3,1.5 s-2,0.1-2.9,0.1c-1.3,0-2.6,0-3.9,0c-2.6,0-5.2,0.1-7.9,0.2c-2.6,0.1-5.2,0.2-7.9,0.2c-1.3,0-2.6,0-3.9-0.1c-1,0-2-0.1-2.9-0.4 C7.6,41,7,40.2,6.9,39c-0.2-1.2-0.2-2.5-0.2-3.8c0-2.1,0.1-4.2,0.2-6.3c0.1-3.5,0-7.1,0-10.6c0-2.6-0.1-5.2-0.2-7.8 C6.7,9.7,6.6,9,7,8.3c1-2.2,3.6-2.7,5.7-2.7c2.6,0,5.2,0.1,7.8,0.2c2.7,0,5.4,0,8.1-0.1c2.6-0.1,5.3-0.3,7.9-0.4 c1.2,0,2.4,0,3.4,0.7C41,6.8,41,8,41.1,9.2c0.1,1.3,0.2,2.6,0.3,3.8l0,0C41.6,18.2,42,23.4,41.9,28.6z"/><path fill="#010101" d="M24.1,23.7c0-1.2,0-2.5-0.1-3.7c0-0.5-0.1-1-0.2-1.6c-0.1-0.5-0.1-1-0.4-1.3 c-0.5-0.5-1.6-0.6-2.3-0.4c-1,0.3-0.9,1.3-1,2.2c0,0.6,0,1.2-0.1,1.8c0,0.3,0,0.6,0,0.8c0,0.2,0,0.3,0,0.5c-0.1,0.3,0,0.2-0.2,0.2 c-0.3,0-1.2,0-1.4-0.3c-0.1-0.2,0-0.7,0-0.9c0-0.3,0.1-0.6,0.1-0.9c0-0.6,0-1.2-0.1-1.7c0-0.4-0.1-0.8-0.5-1 c-0.4-0.3-0.9-0.3-1.4-0.3s-1.1-0.1-1.6,0c-0.7,0.2-1,0.6-1.1,1.2s0,1.3,0,1.9c0,0.7,0,1.3,0,2c0,1.3,0,2.6,0,3.9 c0,1.2-0.1,2.4,0,3.6c0.2,1.1,1.2,1,2.1,1c0.8,0,2,0.2,2.2-0.8c0.1-0.5,0.1-1.1,0.1-1.6c0-0.6,0-1.3-0.1-1.9 c0-0.4-0.2-0.5,0.2-0.6c0.3-0.1,0.9-0.1,1.2,0c0.7,0.2,0.5,1.1,0.5,1.7c0,0.7,0,1.4,0.1,2c0,0.5-0.1,1,0.4,1.4 c0.4,0.3,1,0.3,1.5,0.2c0.5,0,1.1-0.1,1.6-0.4c0.9-0.7,0.5-2.2,0.4-3.2C23.8,26.2,24.1,25,24.1,23.7z M23,29.7 c-0.1,0.3-0.5,0.3-0.8,0.4c-0.2,0-0.5,0-0.7,0c-0.1,0-0.2,0-0.3,0c0,0,0,0-0.1,0c0,0,0,0,0-0.1c-0.1-0.5,0-1.1,0-1.6 c0-0.9,0.1-1.9-0.2-2.7c-0.3-0.8-1-0.9-1.7-0.9c-0.6,0-1.7,0-2,0.7c-0.2,0.4,0,0.9,0,1.3c0,0.5,0,1,0.1,1.6c0,0.4,0.2,1.3-0.3,1.4 c-0.2,0.1-0.5,0-0.7,0c-0.3,0-0.6,0-0.8,0c-0.3,0-0.4-0.1-0.5-0.4s0-0.6,0-0.9c0-0.5,0-1.1,0-1.6c0-2.2,0-4.3,0-6.5 c0-0.5,0-1.1,0-1.6c0-0.3,0-0.6,0.4-0.7c0.5-0.1,1,0,1.5,0c0.2,0,0.5,0,0.6,0.2s0.1,0.6,0.1,0.8c0,0.5,0,1,0,1.5s-0.1,0.9-0.1,1.4 c0,0.7,0.6,1.1,1.3,1.2c0.6,0.1,1.7,0.3,2.1-0.2c0.2-0.3,0.2-0.6,0.3-0.9c0-0.5,0-1,0.1-1.6c0-0.6,0-1.2,0.1-1.8 c0-0.2,0-0.6,0.1-0.8c0.1-0.2,0.5-0.2,0.8-0.2c0.2,0,0.5,0,0.6,0.1c0.2,0.2,0.2,0.4,0.2,0.7c0.1,0.6,0.2,1.3,0.2,1.9 c0.1,1.2,0.1,2.3,0.1,3.5s-0.2,2.4-0.2,3.6l0,0l0,0c0,0.5,0.2,1,0.2,1.5C23.1,29.2,23.1,29.5,23,29.7z"/><path fill="#010101" d="M34.7,25c0-2.2-0.1-4.5-0.1-6.7c0-0.6-0.2-1.2-0.9-1.4c-0.7-0.3-1.7-0.2-2.5-0.2c-1,0-1.9,0-2.9,0 c-0.7,0-1.8,0-2.5,0.3c-0.6,0.3-0.5,0.9-0.5,1.5c0,1,0,1.9,0,2.9c0,1.3,0,2.6,0,3.9c0,1.2-0.1,2.3,0,3.5c0,0.7,0.2,1.3,0.8,1.7 c0.7,0.4,1.6,0.2,2.4,0.2c1,0,2-0.1,3-0.1c0.8,0,1.8,0.1,2.5-0.2c0.7-0.3,0.8-1,0.8-1.7C34.7,27.3,34.7,26.1,34.7,25z M33.7,28.9 c-0.1,0.4-0.4,0.4-0.8,0.4c-0.8,0-1.6,0.1-2.5,0.1c-0.7,0-1.5,0.1-2.2,0.1s-1.8,0.3-1.9-0.7c-0.1-0.9,0-2,0-2.9c0-1.1,0-2.1,0-3.2 c0-1.6,0-3.1,0-4.7v-0.3c-0.1,0.1,0.4,0,0.4,0c0.2,0,0.5,0,0.7-0.1c0.4,0,0.9-0.1,1.3-0.1c0.9,0,1.8,0,2.7,0c0.4,0,0.8,0,1.2,0.1 c0.5,0,0.9,0,0.9,0.6l0,0c0.1,3.2,0.1,6.5,0.2,9.7C33.7,28.3,33.8,28.6,33.7,28.9z"/></svg>